# Blender 4.2.8 LTS
# www.blender.org
mtllib MuseumCouch.mtl
o Cube
v -0.855672 -0.000595 -0.416163
v -0.921949 0.374337 -0.563280
v -0.855672 0.327091 -0.416163
v -0.921949 0.350714 -0.563280
v -0.921949 0.374337 -0.036945
v -0.855672 0.327091 -0.036945
v -0.855672 -0.000595 -0.036945
v -1.229631 -0.000595 -0.036945
v -1.229631 -0.000595 0.000000
v -1.139513 0.658044 0.000000
v -1.229631 0.327091 0.000000
v -1.139513 0.658044 -0.036945
v -1.229631 0.327091 -0.036945
v -0.921949 0.350714 -0.036945
v -1.184572 0.350714 0.000000
v -1.184572 0.350714 -0.036945
v -0.846455 0.374337 -0.563280
v -0.846455 0.374337 -0.036945
v 0.000000 -0.000595 -0.416163
v 0.000000 0.374337 -0.563280
v 0.000000 0.327091 -0.416163
v 0.000000 0.658044 0.000000
v 0.000000 0.658044 -0.036945
v 0.000000 0.350714 -0.563280
v -0.835134 0.658044 -0.036945
v -0.835134 0.658044 0.000000
v -0.770582 0.902747 0.000000
v 0.000000 0.956315 0.000000
v -0.770582 0.902747 -0.036945
v 0.000000 0.956315 -0.036945
v 0.000000 0.488825 -0.036945
v -0.835134 0.350714 -0.563280
v -0.835134 0.327091 -0.416163
v -0.835134 -0.000595 -0.416163
v -0.835134 0.436391 -0.551685
v -0.794924 0.488825 -0.519440
v -0.829747 0.462608 -0.547365
v -0.815029 0.481801 -0.535562
v 0.000000 0.436391 -0.551685
v 0.000000 0.488825 -0.519440
v 0.000000 0.462608 -0.547365
v 0.000000 0.481801 -0.535562
v -0.794924 0.488825 -0.036945
v -0.835134 0.436391 -0.036945
v -0.815029 0.481801 -0.036945
v -0.829747 0.462608 -0.036945
v -0.786381 0.658044 -0.036945
v 0.000000 0.658044 -0.082447
v 0.000000 1.054572 0.000000
v 0.000000 1.054573 -0.036945
v -0.745175 0.658044 -0.082447
v -0.786381 0.658044 -0.050764
v -0.765778 0.658044 -0.078203
v -0.780861 0.658044 -0.066606
v -0.733259 0.814517 -0.082447
v -0.770582 0.891296 -0.050950
v -0.751920 0.843481 -0.078227
v -0.765582 0.871584 -0.066699
v 0.000000 0.865490 -0.082447
v 0.000000 0.944798 -0.051030
v 0.000000 0.895742 -0.078238
v 0.000000 0.924771 -0.066739
v -0.794924 0.488825 -0.050716
v -0.767720 0.488825 -0.082447
v -0.791279 0.488825 -0.066582
v -0.781322 0.488825 -0.078196
v 0.000000 0.488825 -0.082447
v -0.629326 0.186609 0.178318
v -0.649468 0.181340 0.179745
v -0.649367 0.182402 0.180132
v 0.855672 -0.000595 -0.416163
v 0.921949 0.374337 -0.563280
v 0.855672 0.327091 -0.416163
v 0.921949 0.350714 -0.563280
v 0.921949 0.374337 -0.036945
v 0.855672 0.327091 -0.036945
v 0.855672 -0.000595 -0.036945
v 1.229631 -0.000595 -0.036945
v 1.229631 -0.000595 0.000000
v 1.139513 0.658044 0.000000
v 1.229631 0.327091 0.000000
v 1.139513 0.658044 -0.036945
v 1.229631 0.327091 -0.036945
v 0.921949 0.350714 -0.036945
v 1.184572 0.350714 0.000000
v 1.184572 0.350714 -0.036945
v 0.846455 0.374337 -0.563280
v 0.846455 0.374337 -0.036945
v 0.835134 0.658044 -0.036945
v 0.835134 0.658044 0.000000
v 0.770582 0.902747 0.000000
v 0.770582 0.902747 -0.036945
v 0.835134 0.350714 -0.563280
v 0.835134 0.327091 -0.416163
v 0.835134 -0.000595 -0.416163
v 0.835134 0.436391 -0.551685
v 0.794924 0.488825 -0.519440
v 0.829747 0.462608 -0.547365
v 0.815029 0.481801 -0.535562
v 0.794924 0.488825 -0.036945
v 0.835134 0.436391 -0.036945
v 0.815029 0.481801 -0.036945
v 0.829747 0.462608 -0.036945
v 0.786381 0.658044 -0.036945
v 0.745175 0.658044 -0.082447
v 0.786381 0.658044 -0.050764
v 0.765778 0.658044 -0.078203
v 0.780861 0.658044 -0.066606
v 0.733259 0.814517 -0.082447
v 0.770582 0.891296 -0.050950
v 0.751920 0.843481 -0.078227
v 0.765582 0.871584 -0.066699
v 0.794924 0.488825 -0.050716
v 0.767720 0.488825 -0.082447
v 0.791279 0.488825 -0.066582
v 0.781322 0.488825 -0.078196
v 0.629326 0.186609 0.178318
v 0.649468 0.181340 0.179745
v 0.649367 0.182402 0.180132
v -0.855672 -0.000595 0.416163
v -0.921949 0.374337 0.563280
v -0.855672 0.327091 0.416163
v -0.921949 0.350714 0.563280
v -0.921949 0.374337 0.036945
v -0.855672 0.327091 0.036945
v -0.855672 -0.000595 0.036945
v -1.229631 -0.000595 0.036945
v -1.139513 0.658044 0.036945
v -1.229631 0.327091 0.036945
v -0.921949 0.350714 0.036945
v -1.184572 0.350714 0.036945
v -0.846455 0.374337 0.563280
v -0.846455 0.374337 0.036945
v 0.000000 -0.000595 0.416163
v 0.000000 0.374337 0.563280
v 0.000000 0.327091 0.416163
v 0.000000 0.658044 0.036945
v 0.000000 0.350714 0.563280
v -0.835134 0.658044 0.036945
v -0.770582 0.902747 0.036945
v 0.000000 0.956315 0.036945
v 0.000000 0.488825 0.036945
v -0.835134 0.350714 0.563280
v -0.835134 0.327091 0.416163
v -0.835134 -0.000595 0.416163
v -0.835134 0.436391 0.551685
v -0.794924 0.488825 0.519440
v -0.829747 0.462608 0.547365
v -0.815029 0.481801 0.535562
v 0.000000 0.436391 0.551685
v 0.000000 0.488825 0.519440
v 0.000000 0.462608 0.547365
v 0.000000 0.481801 0.535562
v -0.794924 0.488825 0.036945
v -0.835134 0.436391 0.036945
v -0.815029 0.481801 0.036945
v -0.829747 0.462608 0.036945
v -0.786381 0.658044 0.036945
v 0.000000 0.658044 0.082447
v 0.000000 1.054573 0.036945
v -0.745175 0.658044 0.082447
v -0.786381 0.658044 0.050764
v -0.765778 0.658044 0.078203
v -0.780861 0.658044 0.066606
v -0.733259 0.814517 0.082447
v -0.770582 0.891296 0.050950
v -0.751920 0.843481 0.078227
v -0.765582 0.871584 0.066699
v 0.000000 0.865490 0.082447
v 0.000000 0.944798 0.051030
v 0.000000 0.895742 0.078238
v 0.000000 0.924771 0.066739
v -0.794924 0.488825 0.050716
v -0.767720 0.488825 0.082447
v -0.791279 0.488825 0.066582
v -0.781322 0.488825 0.078196
v 0.000000 0.488825 0.082447
v -0.629326 0.186609 -0.178318
v -0.649468 0.181340 -0.179745
v -0.649367 0.182402 -0.180132
v 0.855672 -0.000595 0.416163
v 0.921949 0.374337 0.563280
v 0.855672 0.327091 0.416163
v 0.921949 0.350714 0.563280
v 0.921949 0.374337 0.036945
v 0.855672 0.327091 0.036945
v 0.855672 -0.000595 0.036945
v 1.229631 -0.000595 0.036945
v 1.139513 0.658044 0.036945
v 1.229631 0.327091 0.036945
v 0.921949 0.350714 0.036945
v 1.184572 0.350714 0.036945
v 0.846455 0.374337 0.563280
v 0.846455 0.374337 0.036945
v 0.835134 0.658044 0.036945
v 0.770582 0.902747 0.036945
v 0.835134 0.350714 0.563280
v 0.835134 0.327091 0.416163
v 0.835134 -0.000595 0.416163
v 0.835134 0.436391 0.551685
v 0.794924 0.488825 0.519440
v 0.829747 0.462608 0.547365
v 0.815029 0.481801 0.535562
v 0.794924 0.488825 0.036945
v 0.835134 0.436391 0.036945
v 0.815029 0.481801 0.036945
v 0.829747 0.462608 0.036945
v 0.786381 0.658044 0.036945
v 0.745175 0.658044 0.082447
v 0.786381 0.658044 0.050764
v 0.765778 0.658044 0.078203
v 0.780861 0.658044 0.066606
v 0.733259 0.814517 0.082447
v 0.770582 0.891296 0.050950
v 0.751920 0.843481 0.078227
v 0.765582 0.871584 0.066699
v 0.794924 0.488825 0.050716
v 0.767720 0.488825 0.082447
v 0.791279 0.488825 0.066582
v 0.781322 0.488825 0.078196
v 0.629326 0.186609 -0.178318
v 0.649468 0.181340 -0.179745
v 0.649367 0.182402 -0.180132
vn -1.0000 -0.0000 -0.0000
vn -0.0000 -0.0000 -1.0000
vn -0.0000 -0.0000 1.0000
vn -0.9894 0.1451 -0.0000
vn -0.4643 0.8857 -0.0000
vn -0.3357 -0.9420 -0.0000
vn -0.0000 1.0000 -0.0000
vn -0.0000 -0.9874 -0.1585
vn 1.0000 -0.0000 -0.0000
vn -0.9669 0.2551 -0.0000
vn -0.9838 0.1795 -0.0000
vn -0.0000 0.9168 -0.3994
vn -0.0000 0.5238 -0.8518
vn -0.0000 0.1626 -0.9867
vn -0.2541 0.9672 0.0010
vn -0.7935 0.6085 -0.0000
vn -0.9795 0.2013 -0.0000
vn -0.0000 0.1837 -0.9830
vn -0.0537 0.7730 -0.6321
vn -0.9987 0.0504 -0.0000
vn -0.9975 0.0659 -0.0271
vn -0.1933 0.9811 -0.0000
vn -0.0429 0.6168 -0.7860
vn -0.0256 0.3684 -0.9293
vn -0.0096 0.1380 -0.9904
vn -0.9340 0.0647 -0.3515
vn -0.6000 0.0436 -0.7988
vn -0.2001 0.0150 -0.9797
vn -0.9593 0.0537 -0.2773
vn -0.6789 0.0520 -0.7324
vn -0.2410 0.0271 -0.9702
vn -0.3299 0.9440 -0.0000
vn -0.3816 0.9202 -0.0877
vn 0.9894 0.1451 -0.0000
vn 0.4643 0.8857 -0.0000
vn 0.3357 -0.9420 -0.0000
vn 0.9669 0.2551 -0.0000
vn 0.9838 0.1795 -0.0000
vn 0.2541 0.9672 0.0010
vn 0.7935 0.6085 -0.0000
vn 0.9795 0.2013 -0.0000
vn 0.0537 0.7730 -0.6321
vn 0.9987 0.0504 -0.0000
vn 0.9975 0.0659 -0.0271
vn 0.1933 0.9811 -0.0000
vn 0.0429 0.6168 -0.7860
vn 0.0256 0.3684 -0.9293
vn 0.0096 0.1380 -0.9904
vn 0.9340 0.0647 -0.3515
vn 0.6000 0.0436 -0.7988
vn 0.2001 0.0150 -0.9797
vn 0.9593 0.0537 -0.2773
vn 0.6789 0.0520 -0.7324
vn 0.2410 0.0271 -0.9702
vn 0.3299 0.9440 -0.0000
vn 0.3816 0.9202 -0.0877
vn -0.0000 -0.9874 0.1585
vn -0.0000 0.9168 0.3994
vn -0.0000 0.5238 0.8518
vn -0.0000 0.1626 0.9867
vn -0.2541 0.9672 -0.0010
vn -0.0000 0.1837 0.9830
vn -0.0537 0.7730 0.6321
vn -0.9975 0.0659 0.0271
vn -0.0429 0.6168 0.7860
vn -0.0256 0.3684 0.9293
vn -0.0096 0.1380 0.9904
vn -0.9340 0.0647 0.3515
vn -0.6000 0.0436 0.7988
vn -0.2001 0.0150 0.9797
vn -0.9593 0.0537 0.2773
vn -0.6789 0.0520 0.7324
vn -0.2410 0.0271 0.9702
vn -0.3816 0.9202 0.0877
vn 0.2541 0.9672 -0.0010
vn 0.0537 0.7730 0.6321
vn 0.9975 0.0659 0.0271
vn 0.0429 0.6168 0.7860
vn 0.0256 0.3684 0.9293
vn 0.0096 0.1380 0.9904
vn 0.9340 0.0647 0.3515
vn 0.6000 0.0436 0.7988
vn 0.2001 0.0150 0.9797
vn 0.9593 0.0537 0.2773
vn 0.6789 0.0520 0.7324
vn 0.2410 0.0271 0.9702
vn 0.3816 0.9202 0.0877
vt 0.291694 0.371098
vt 0.286675 0.371098
vt 0.286675 0.188295
vt 0.291694 0.188295
vt 0.322614 0.188295
vt 0.253002 0.188295
vt 0.253002 0.056587
vt 0.322614 0.056587
vt 0.098650 0.177371
vt 0.117441 0.180990
vt 0.013592 0.188954
vt 0.025720 0.182963
vt 0.122793 0.250773
vt 0.018944 0.258737
vt 0.167333 0.826550
vt 0.167333 0.715019
vt 0.197879 0.715019
vt 0.192393 0.817929
vt 0.013592 0.328349
vt 0.013592 0.258737
vt 0.026424 0.258737
vt 0.026424 0.328349
vt 0.026424 0.325324
vt 0.039256 0.258737
vt 0.039256 0.325324
vt 0.052087 0.271844
vt 0.052087 0.258737
vt 0.064919 0.258737
vt 0.064919 0.271844
vt 0.098264 0.172340
vt 0.033213 0.116555
vt 0.056798 0.720383
vt 0.056959 0.711353
vt 0.144419 0.711868
vt 0.119812 0.720755
vt 0.273844 0.188295
vt 0.273844 0.371098
vt 0.253002 0.371098
vt 0.253002 0.294906
vt 0.201658 0.313365
vt 0.201658 0.289186
vt 0.253002 0.289186
vt 0.201658 0.294906
vt 0.131670 0.294906
vt 0.131670 0.289186
vt 0.361408 0.313365
vt 0.356362 0.313365
vt 0.356362 0.292339
vt 0.361408 0.289186
vt 0.286675 0.272323
vt 0.273844 0.272323
vt 0.117740 0.110073
vt 0.119229 0.170732
vt 0.137377 0.844648
vt 0.131224 0.844648
vt 0.131224 0.834578
vt 0.137377 0.834578
vt 0.052087 0.312582
vt 0.039256 0.312582
vt 0.039256 0.258737
vt 0.052087 0.258737
vt 0.137377 0.875190
vt 0.131224 0.875190
vt 0.939786 0.273435
vt 0.939786 0.053323
vt 0.956178 0.053468
vt 0.956178 0.268731
vt 0.791432 0.318789
vt 0.606416 0.315516
vt 0.608198 0.310961
vt 0.131670 0.056587
vt 0.201658 0.056587
vt 0.356362 0.056587
vt 0.361408 0.056587
vt 0.791432 0.053323
vt 0.798289 0.053508
vt 0.798289 0.325689
vt 0.910825 0.327535
vt 0.910825 0.053979
vt 0.916348 0.053632
vt 0.916348 0.332128
vt 0.923288 0.053554
vt 0.923288 0.333858
vt 0.601546 0.318875
vt 0.589216 0.327124
vt 0.968711 0.053929
vt 0.968711 0.262450
vt 0.963131 0.267004
vt 0.963131 0.053547
vt 0.939786 0.053323
vt 0.939786 0.337426
vt 0.131279 0.109035
vt 0.131670 0.145253
vt 0.968711 0.312431
vt 0.968711 0.053323
vt 0.974775 0.053680
vt 0.974741 0.312787
vt 0.939858 0.380448
vt 0.939786 0.336763
vt 0.945565 0.336790
vt 0.945617 0.380475
vt 0.867454 0.053848
vt 0.867454 0.303958
vt 0.827351 0.299562
vt 0.814286 0.053323
vt 0.945666 0.276392
vt 0.123646 0.875190
vt 0.123646 0.853948
vt 0.124347 0.850851
vt 0.126262 0.847878
vt 0.128878 0.845827
vt 0.356362 0.056587
vt 0.356362 0.272502
vt 0.343530 0.272502
vt 0.343530 0.056587
vt 0.207942 0.715556
vt 0.343530 0.058632
vt 0.322614 0.272537
vt 0.981636 0.054316
vt 0.981619 0.311743
vt 0.811918 0.310794
vt 0.798289 0.053699
vt 0.806317 0.053387
vt 0.819711 0.305894
vt 0.952441 0.281240
vt 0.952357 0.336570
vt 0.866643 0.316466
vt 0.867237 0.311015
vt 0.952362 0.380340
vt 0.957663 0.335909
vt 0.957521 0.379911
vt 0.910607 0.316661
vt 0.910824 0.311953
vt 0.126201 0.147178
vt 0.122428 0.151578
vt 0.121360 0.157276
vt 0.151994 0.711603
vt 0.151994 0.813413
vt 0.151286 0.815219
vt 0.149353 0.816546
vt 0.146712 0.817039
vt 0.144419 0.817047
vt 0.144419 0.711629
vt 0.589119 0.320177
vt 0.594893 0.320138
vt 0.608198 0.054580
vt 0.910824 0.054276
s 0
f 14/1/1 5/2/1 2/3/1 4/4/1
f 7/5/1 6/6/1 3/7/1 1/8/1
f 14/9/2 6/10/2 13/11/2 16/12/2
f 6/10/2 7/13/2 8/14/2 13/11/2
f 26/15/3 22/16/3 28/17/3 27/18/3
f 9/19/1 11/20/1 13/21/1 8/22/1
f 15/23/4 10/21/4 12/24/4 16/25/4
f 11/26/5 15/27/5 16/28/5 13/29/5
f 5/30/2 14/9/2 16/12/2 12/31/2
f 6/32/6 14/33/6 4/34/6 3/35/6
f 2/36/7 5/37/7 18/38/7 17/6/7
f 3/39/8 4/40/8 32/41/8 33/42/8
f 1/43/2 3/44/2 33/45/2 34/41/2
f 4/46/2 2/47/2 17/48/2 32/49/2
f 26/36/7 25/3/7 12/50/7 10/51/7
f 25/52/2 18/53/2 5/30/2 12/31/2
f 28/54/9 30/55/9 50/56/9 49/57/9
f 25/58/10 26/59/10 27/60/10 29/61/10
f 22/62/9 23/63/9 30/55/9 28/54/9
f 17/64/11 18/65/11 44/66/11 35/67/11
f 36/68/7 66/69/7 64/70/7
f 34/41/2 33/45/2 21/71/2 19/72/2
f 32/49/2 17/48/2 20/73/2 24/74/2
f 33/42/8 32/41/8 24/72/8 21/7/8
f 36/68/12 40/75/12 42/76/12 38/77/12
f 38/78/13 42/79/13 41/80/13 37/81/13
f 37/81/14 41/80/14 39/82/14 35/83/14
f 65/84/15 66/69/15 36/68/15 38/77/15 45/85/15
f 45/86/16 38/87/16 37/88/16 46/89/16
f 46/89/17 37/88/17 35/67/17 44/66/17
f 20/90/18 17/91/18 35/83/18 39/82/18
f 29/71/2 47/92/2 25/52/2
f 43/93/2 25/52/2 47/92/2
f 29/94/19 30/95/19 60/96/19 56/97/19
f 43/98/20 47/99/20 52/100/20 63/101/20
f 48/102/2 51/103/2 55/104/2 59/105/2
f 47/99/21 29/64/21 56/106/21 52/100/21
f 30/55/9 23/63/9 48/107/9 59/108/9 61/109/9 62/110/9 60/111/9
f 50/112/22 29/113/22 27/114/22 49/115/22
f 27/18/3 28/17/3 49/116/3
f 30/117/2 29/118/2 50/8/2
f 56/97/23 60/96/23 62/119/23 58/120/23
f 58/121/24 62/122/24 61/123/24 57/124/24
f 57/124/25 61/123/25 59/105/25 55/104/25
f 52/100/26 56/106/26 58/125/26 54/126/26
f 54/127/27 58/121/27 57/124/27 53/128/27
f 53/128/28 57/124/28 55/104/28 51/103/28
f 63/101/29 52/100/29 54/126/29 65/129/29
f 65/129/30 54/126/30 53/130/30 66/131/30
f 66/132/31 53/128/31 51/103/31 64/133/31
f 25/52/2 43/93/2 45/134/2
f 25/52/2 45/134/2 46/135/2
f 18/53/2 25/52/2 44/136/2
f 44/136/2 25/52/2 46/135/2
f 67/137/7 64/138/7 66/139/7 65/140/7 63/141/7 43/142/7 31/143/7
f 43/144/32 63/145/32 45/85/32
f 63/145/33 65/84/33 45/85/33
f 40/75/7 36/68/7 64/70/7 67/146/7
f 51/103/2 48/102/2 67/147/2 64/133/2
f 84/1/9 74/4/9 72/3/9 75/2/9
f 77/5/9 71/8/9 73/7/9 76/6/9
f 84/9/2 86/12/2 83/11/2 76/10/2
f 76/10/2 83/11/2 78/14/2 77/13/2
f 90/15/3 91/18/3 28/17/3 22/16/3
f 79/19/9 78/22/9 83/21/9 81/20/9
f 85/23/34 86/25/34 82/24/34 80/21/34
f 81/26/35 83/29/35 86/28/35 85/27/35
f 75/30/2 82/31/2 86/12/2 84/9/2
f 76/32/36 73/35/36 74/34/36 84/33/36
f 72/36/7 87/6/7 88/38/7 75/37/7
f 73/39/8 94/42/8 93/41/8 74/40/8
f 71/43/2 95/41/2 94/45/2 73/44/2
f 74/46/2 93/49/2 87/48/2 72/47/2
f 90/36/7 80/51/7 82/50/7 89/3/7
f 89/52/2 82/31/2 75/30/2 88/53/2
f 89/58/37 92/61/37 91/60/37 90/59/37
f 87/64/38 96/67/38 101/66/38 88/65/38
f 97/68/7 114/70/7 116/69/7
f 95/41/2 19/72/2 21/71/2 94/45/2
f 93/49/2 24/74/2 20/73/2 87/48/2
f 94/42/8 21/7/8 24/72/8 93/41/8
f 97/68/12 99/77/12 42/76/12 40/75/12
f 99/78/13 98/81/13 41/80/13 42/79/13
f 98/81/14 96/83/14 39/82/14 41/80/14
f 115/84/39 102/85/39 99/77/39 97/68/39 116/69/39
f 102/86/40 103/89/40 98/88/40 99/87/40
f 103/89/41 101/66/41 96/67/41 98/88/41
f 20/90/18 39/82/18 96/83/18 87/91/18
f 92/71/2 89/52/2 104/92/2
f 100/93/2 104/92/2 89/52/2
f 92/94/42 110/97/42 60/96/42 30/95/42
f 100/98/43 113/101/43 106/100/43 104/99/43
f 48/102/2 59/105/2 109/104/2 105/103/2
f 104/99/44 106/100/44 110/106/44 92/64/44
f 50/112/45 49/115/45 91/114/45 92/113/45
f 91/18/3 49/116/3 28/17/3
f 30/117/2 50/8/2 92/118/2
f 110/97/46 112/120/46 62/119/46 60/96/46
f 112/121/47 111/124/47 61/123/47 62/122/47
f 111/124/48 109/104/48 59/105/48 61/123/48
f 106/100/49 108/126/49 112/125/49 110/106/49
f 108/127/50 107/128/50 111/124/50 112/121/50
f 107/128/51 105/103/51 109/104/51 111/124/51
f 113/101/52 115/129/52 108/126/52 106/100/52
f 115/129/53 116/131/53 107/130/53 108/126/53
f 116/132/54 114/133/54 105/103/54 107/128/54
f 89/52/2 102/134/2 100/93/2
f 89/52/2 103/135/2 102/134/2
f 88/53/2 101/136/2 89/52/2
f 101/136/2 103/135/2 89/52/2
f 67/137/7 31/143/7 100/142/7 113/141/7 115/140/7 116/139/7 114/138/7
f 100/144/55 102/85/55 113/145/55
f 113/145/56 102/85/56 115/84/56
f 40/75/7 67/146/7 114/70/7 97/68/7
f 105/103/2 114/133/2 67/147/2 48/102/2
f 130/1/1 123/4/1 121/3/1 124/2/1
f 126/5/1 120/8/1 122/7/1 125/6/1
f 130/9/3 131/12/3 129/11/3 125/10/3
f 125/10/3 129/11/3 127/14/3 126/13/3
f 9/19/1 127/22/1 129/21/1 11/20/1
f 15/23/4 131/25/4 128/24/4 10/21/4
f 11/26/5 129/29/5 131/28/5 15/27/5
f 124/30/3 128/31/3 131/12/3 130/9/3
f 125/32/6 122/35/6 123/34/6 130/33/6
f 121/36/7 132/6/7 133/38/7 124/37/7
f 122/39/57 144/42/57 143/41/57 123/40/57
f 120/43/3 145/41/3 144/45/3 122/44/3
f 123/46/3 143/49/3 132/48/3 121/47/3
f 26/36/7 10/51/7 128/50/7 139/3/7
f 139/52/3 128/31/3 124/30/3 133/53/3
f 28/54/9 49/57/9 160/56/9 141/55/9
f 139/58/10 140/61/10 27/60/10 26/59/10
f 22/62/9 28/54/9 141/55/9 137/63/9
f 132/64/11 146/67/11 155/66/11 133/65/11
f 147/68/7 174/70/7 176/69/7
f 145/41/3 134/72/3 136/71/3 144/45/3
f 143/49/3 138/74/3 135/73/3 132/48/3
f 144/42/57 136/7/57 138/72/57 143/41/57
f 147/68/58 149/77/58 153/76/58 151/75/58
f 149/78/59 148/81/59 152/80/59 153/79/59
f 148/81/60 146/83/60 150/82/60 152/80/60
f 175/84/61 156/85/61 149/77/61 147/68/61 176/69/61
f 156/86/16 157/89/16 148/88/16 149/87/16
f 157/89/17 155/66/17 146/67/17 148/88/17
f 135/90/62 150/82/62 146/83/62 132/91/62
f 140/71/3 139/52/3 158/92/3
f 154/93/3 158/92/3 139/52/3
f 140/94/63 166/97/63 170/96/63 141/95/63
f 154/98/20 173/101/20 162/100/20 158/99/20
f 159/102/3 169/105/3 165/104/3 161/103/3
f 158/99/64 162/100/64 166/106/64 140/64/64
f 141/55/9 170/111/9 172/110/9 171/109/9 169/108/9 159/107/9 137/63/9
f 160/112/22 49/115/22 27/114/22 140/113/22
f 141/117/3 160/8/3 140/118/3
f 166/97/65 168/120/65 172/119/65 170/96/65
f 168/121/66 167/124/66 171/123/66 172/122/66
f 167/124/67 165/104/67 169/105/67 171/123/67
f 162/100/68 164/126/68 168/125/68 166/106/68
f 164/127/69 163/128/69 167/124/69 168/121/69
f 163/128/70 161/103/70 165/104/70 167/124/70
f 173/101/71 175/129/71 164/126/71 162/100/71
f 175/129/72 176/131/72 163/130/72 164/126/72
f 176/132/73 174/133/73 161/103/73 163/128/73
f 139/52/3 156/134/3 154/93/3
f 139/52/3 157/135/3 156/134/3
f 133/53/3 155/136/3 139/52/3
f 155/136/3 157/135/3 139/52/3
f 177/137/7 142/143/7 154/142/7 173/141/7 175/140/7 176/139/7 174/138/7
f 154/144/32 156/85/32 173/145/32
f 173/145/74 156/85/74 175/84/74
f 151/75/7 177/146/7 174/70/7 147/68/7
f 161/103/3 174/133/3 177/147/3 159/102/3
f 191/1/9 185/2/9 182/3/9 184/4/9
f 187/5/9 186/6/9 183/7/9 181/8/9
f 191/9/3 186/10/3 190/11/3 192/12/3
f 186/10/3 187/13/3 188/14/3 190/11/3
f 79/19/9 81/20/9 190/21/9 188/22/9
f 85/23/34 80/21/34 189/24/34 192/25/34
f 81/26/35 85/27/35 192/28/35 190/29/35
f 185/30/3 191/9/3 192/12/3 189/31/3
f 186/32/36 191/33/36 184/34/36 183/35/36
f 182/36/7 185/37/7 194/38/7 193/6/7
f 183/39/57 184/40/57 197/41/57 198/42/57
f 181/43/3 183/44/3 198/45/3 199/41/3
f 184/46/3 182/47/3 193/48/3 197/49/3
f 90/36/7 195/3/7 189/50/7 80/51/7
f 195/52/3 194/53/3 185/30/3 189/31/3
f 195/58/37 90/59/37 91/60/37 196/61/37
f 193/64/38 194/65/38 205/66/38 200/67/38
f 201/68/7 220/69/7 218/70/7
f 199/41/3 198/45/3 136/71/3 134/72/3
f 197/49/3 193/48/3 135/73/3 138/74/3
f 198/42/57 197/41/57 138/72/57 136/7/57
f 201/68/58 151/75/58 153/76/58 203/77/58
f 203/78/59 153/79/59 152/80/59 202/81/59
f 202/81/60 152/80/60 150/82/60 200/83/60
f 219/84/75 220/69/75 201/68/75 203/77/75 206/85/75
f 206/86/40 203/87/40 202/88/40 207/89/40
f 207/89/41 202/88/41 200/67/41 205/66/41
f 135/90/62 193/91/62 200/83/62 150/82/62
f 196/71/3 208/92/3 195/52/3
f 204/93/3 195/52/3 208/92/3
f 196/94/76 141/95/76 170/96/76 214/97/76
f 204/98/43 208/99/43 210/100/43 217/101/43
f 159/102/3 209/103/3 213/104/3 169/105/3
f 208/99/77 196/64/77 214/106/77 210/100/77
f 160/112/45 196/113/45 91/114/45 49/115/45
f 141/117/3 196/118/3 160/8/3
f 214/97/78 170/96/78 172/119/78 216/120/78
f 216/121/79 172/122/79 171/123/79 215/124/79
f 215/124/80 171/123/80 169/105/80 213/104/80
f 210/100/81 214/106/81 216/125/81 212/126/81
f 212/127/82 216/121/82 215/124/82 211/128/82
f 211/128/83 215/124/83 213/104/83 209/103/83
f 217/101/84 210/100/84 212/126/84 219/129/84
f 219/129/85 212/126/85 211/130/85 220/131/85
f 220/132/86 211/128/86 209/103/86 218/133/86
f 195/52/3 204/93/3 206/134/3
f 195/52/3 206/134/3 207/135/3
f 194/53/3 195/52/3 205/136/3
f 205/136/3 195/52/3 207/135/3
f 177/137/7 218/138/7 220/139/7 219/140/7 217/141/7 204/142/7 142/143/7
f 204/144/55 217/145/55 206/85/55
f 217/145/87 219/84/87 206/85/87
f 151/75/7 201/68/7 218/70/7 177/146/7
f 209/103/3 159/102/3 177/147/3 218/133/3
l 68 69
l 69 70
l 117 118
l 118 119
l 178 179
l 179 180
l 221 222
l 222 223
