# Blender 4.2.8 LTS
# www.blender.org
mtllib Wall.mtl
o Cube
v -2.696299 0.000559 0.094046
v -2.696299 3.929134 0.056914
v -2.696299 0.000559 -0.094046
v -2.696299 3.929134 -0.056914
v 2.696299 0.000559 0.094046
v 2.696299 3.929134 0.056914
v 2.696299 0.000559 -0.094046
v 2.696299 3.929134 -0.056914
v -2.696299 0.464267 0.094046
v -2.696299 0.464267 -0.094046
v 2.696299 0.464267 -0.094046
v 2.696299 0.464267 0.094046
v -2.696299 0.539541 0.056914
v -2.696299 0.539541 -0.056914
v 2.696299 0.539541 -0.056914
v 2.696299 0.539541 0.056914
vn -1.0000 -0.0000 -0.0000
vn -0.0000 -0.0000 -1.0000
vn 1.0000 -0.0000 -0.0000
vn -0.0000 -0.0000 1.0000
vn -0.0000 1.0000 -0.0000
vn -0.0000 0.4424 0.8968
vn -0.0000 0.4424 -0.8968
vt 0.630832 0.691077
vt 0.630832 0.819946
vt 0.481471 0.819946
vt 0.481471 0.691077
vt 0.332110 0.819946
vt 0.332110 0.691077
vt 0.182749 0.819946
vt 0.182749 0.691077
vt 0.033388 0.819946
vt 0.033388 0.691077
vt 0.332110 0.969307
vt 0.182749 0.969307
vt 0.448501 0.064497
vt 0.448501 0.047935
vt 0.588821 0.047935
vt 0.588821 0.064497
vt 0.308180 0.064497
vt 0.308180 0.047935
vt 0.167860 0.064497
vt 0.167860 0.047935
vt 0.027539 0.064497
vt 0.027539 0.047935
vt 0.448501 0.045246
vt 0.588821 0.045246
vt 0.308180 0.045246
vt 0.167860 0.045246
vt 0.027539 0.045246
s 0
f 13/1/1 2/2/1 4/3/1 14/4/1
f 14/4/2 4/3/2 8/5/2 15/6/2
f 15/6/3 8/5/3 6/7/3 16/8/3
f 16/8/4 6/7/4 2/9/4 13/10/4
f 8/5/5 4/11/5 2/12/5 6/7/5
f 5/13/4 12/14/4 9/15/4 1/16/4
f 7/17/3 11/18/3 12/14/3 5/13/3
f 3/19/2 10/20/2 11/18/2 7/17/2
f 1/21/1 9/22/1 10/20/1 3/19/1
f 12/14/6 16/23/6 13/24/6 9/15/6
f 11/18/3 15/25/3 16/23/3 12/14/3
f 10/20/7 14/26/7 15/25/7 11/18/7
f 9/22/1 13/27/1 14/26/1 10/20/1
